<?xml version="1.0" encoding="utf-8"?>
<!-- Generator: Adobe Illustrator 19.2.1, SVG Export Plug-In . SVG Version: 6.00 Build 0)  -->
<svg version="1.1" id="Layer_1" xmlns="http://www.w3.org/2000/svg" xmlns:xlink="http://www.w3.org/1999/xlink" x="0px" y="0px"
	 viewBox="0 0 102.7 102.7" style="enable-background:new 0 0 102.7 102.7;" xml:space="preserve">
<style type="text/css">
	.st0{fill:#FFFFFF;}
	.st1{fill:#4E4E4E;}
</style>
<g>
	<g>
		<path class="st0" d="M51.3,102.7C23.1,102.7,0,79.6,0,51.3S23.1,0,51.3,0c28.2,0,51.3,23.1,51.3,51.3S79.6,102.7,51.3,102.7z"/>
	</g>
	<g>
		<g>
			<g>
				<polygon class="st1" points="37.1,39.2 37.1,39.2 56.7,27.9 56.7,51.9 56.7,75.9 37.1,64.6 37.1,64.6 25.1,64.6 25.1,57.1 
					25.1,46.8 25.1,39.2 				"/>
			</g>
		</g>
		<g>
			<g>
				<path class="st1" d="M70,51.9c0,4.8-1.9,9.2-4.9,12.4l2.2,2.2c3.6-3.8,5.8-9,5.8-14.6c0-5.7-2.2-10.8-5.8-14.6l-2.2,2.2
					C68.2,42.8,70,47.1,70,51.9z"/>
			</g>
		</g>
		<g>
			<g>
				<path class="st1" d="M64.5,51.9c0,3.5-1.4,6.8-3.6,9.2l1.6,1.6c2.6-2.8,4.3-6.6,4.3-10.8c0-4.2-1.6-8-4.3-10.8l-1.6,1.6
					C63.1,45.2,64.5,48.4,64.5,51.9z"/>
			</g>
		</g>
		<g>
			<g>
				<path class="st1" d="M76.5,51.9c0,6.5-2.5,12.4-6.6,16.8l3,3c4.8-5.2,7.8-12.1,7.8-19.8c0-7.6-3-14.6-7.8-19.8l-3,3
					C74,39.5,76.5,45.4,76.5,51.9z"/>
			</g>
		</g>
	</g>
</g>
</svg>
